<mxfile host="app.diagrams.net" agent="Mozilla/5.0 (X11; Linux x86_64) AppleWebKit/537.36 (KHTML, like Gecko) Chrome/134.0.0.0 YaBrowser/25.4.0.0 Safari/537.36" version="27.1.6" pages="2">
  <diagram id="ubtCO0rIWUks2UuHdjHM" name="Карту текущего IT-ландшафта">
    <mxGraphModel dx="1378" dy="780" grid="1" gridSize="10" guides="1" tooltips="1" connect="1" arrows="1" fold="1" page="1" pageScale="1" pageWidth="827" pageHeight="1169" math="0" shadow="0">
      <root>
        <mxCell id="0" />
        <mxCell id="1" parent="0" />
        <mxCell id="aYj19WxieziSCweyIVN0-1" value="" style="shape=table;startSize=0;container=1;collapsible=0;childLayout=tableLayout;" parent="1" vertex="1">
          <mxGeometry x="40" y="230" width="820" height="832" as="geometry" />
        </mxCell>
        <mxCell id="aYj19WxieziSCweyIVN0-2" value="" style="shape=tableRow;horizontal=0;startSize=0;swimlaneHead=0;swimlaneBody=0;strokeColor=inherit;top=0;left=0;bottom=0;right=0;collapsible=0;dropTarget=0;fillColor=none;points=[[0,0.5],[1,0.5]];portConstraint=eastwest;" parent="aYj19WxieziSCweyIVN0-1" vertex="1">
          <mxGeometry width="820" height="104" as="geometry" />
        </mxCell>
        <mxCell id="aYj19WxieziSCweyIVN0-3" value="" style="shape=partialRectangle;html=1;whiteSpace=wrap;connectable=0;strokeColor=inherit;overflow=hidden;fillColor=none;top=0;left=0;bottom=0;right=0;pointerEvents=1;" parent="aYj19WxieziSCweyIVN0-2" vertex="1">
          <mxGeometry width="118" height="104" as="geometry">
            <mxRectangle width="118" height="104" as="alternateBounds" />
          </mxGeometry>
        </mxCell>
        <mxCell id="aYj19WxieziSCweyIVN0-4" value="Продажи через кол-центр" style="shape=partialRectangle;html=1;whiteSpace=wrap;connectable=0;strokeColor=inherit;overflow=hidden;fillColor=none;top=0;left=0;bottom=0;right=0;pointerEvents=1;" parent="aYj19WxieziSCweyIVN0-2" vertex="1">
          <mxGeometry x="118" width="116" height="104" as="geometry">
            <mxRectangle width="116" height="104" as="alternateBounds" />
          </mxGeometry>
        </mxCell>
        <mxCell id="aYj19WxieziSCweyIVN0-5" value="Продажи в сети отделений" style="shape=partialRectangle;html=1;whiteSpace=wrap;connectable=0;strokeColor=inherit;overflow=hidden;fillColor=none;top=0;left=0;bottom=0;right=0;pointerEvents=1;" parent="aYj19WxieziSCweyIVN0-2" vertex="1">
          <mxGeometry x="234" width="118" height="104" as="geometry">
            <mxRectangle width="118" height="104" as="alternateBounds" />
          </mxGeometry>
        </mxCell>
        <mxCell id="aYj19WxieziSCweyIVN0-6" value="Digital-оповещения клиентов" style="shape=partialRectangle;html=1;whiteSpace=wrap;connectable=0;strokeColor=inherit;overflow=hidden;fillColor=none;top=0;left=0;bottom=0;right=0;pointerEvents=1;" parent="aYj19WxieziSCweyIVN0-2" vertex="1">
          <mxGeometry x="352" width="116" height="104" as="geometry">
            <mxRectangle width="116" height="104" as="alternateBounds" />
          </mxGeometry>
        </mxCell>
        <mxCell id="aYj19WxieziSCweyIVN0-7" value="Обслуживания депозитных процессов" style="shape=partialRectangle;html=1;whiteSpace=wrap;connectable=0;strokeColor=inherit;overflow=hidden;fillColor=none;top=0;left=0;bottom=0;right=0;pointerEvents=1;" parent="aYj19WxieziSCweyIVN0-2" vertex="1">
          <mxGeometry x="468" width="118" height="104" as="geometry">
            <mxRectangle width="118" height="104" as="alternateBounds" />
          </mxGeometry>
        </mxCell>
        <mxCell id="aYj19WxieziSCweyIVN0-8" value="Обслуживания кредитных процессов" style="shape=partialRectangle;html=1;whiteSpace=wrap;connectable=0;strokeColor=inherit;overflow=hidden;fillColor=none;top=0;left=0;bottom=0;right=0;pointerEvents=1;" parent="aYj19WxieziSCweyIVN0-2" vertex="1">
          <mxGeometry x="586" width="116" height="104" as="geometry">
            <mxRectangle width="116" height="104" as="alternateBounds" />
          </mxGeometry>
        </mxCell>
        <mxCell id="aYj19WxieziSCweyIVN0-9" value="Управления договорами" style="shape=partialRectangle;html=1;whiteSpace=wrap;connectable=0;strokeColor=inherit;overflow=hidden;fillColor=none;top=0;left=0;bottom=0;right=0;pointerEvents=1;" parent="aYj19WxieziSCweyIVN0-2" vertex="1">
          <mxGeometry x="702" width="118" height="104" as="geometry">
            <mxRectangle width="118" height="104" as="alternateBounds" />
          </mxGeometry>
        </mxCell>
        <mxCell id="aYj19WxieziSCweyIVN0-10" value="" style="shape=tableRow;horizontal=0;startSize=0;swimlaneHead=0;swimlaneBody=0;strokeColor=inherit;top=0;left=0;bottom=0;right=0;collapsible=0;dropTarget=0;fillColor=none;points=[[0,0.5],[1,0.5]];portConstraint=eastwest;" parent="aYj19WxieziSCweyIVN0-1" vertex="1">
          <mxGeometry y="104" width="820" height="104" as="geometry" />
        </mxCell>
        <mxCell id="aYj19WxieziSCweyIVN0-11" value="Управление обслуживанием в сети отделений" style="shape=partialRectangle;html=1;whiteSpace=wrap;connectable=0;strokeColor=inherit;overflow=hidden;fillColor=none;top=0;left=0;bottom=0;right=0;pointerEvents=1;" parent="aYj19WxieziSCweyIVN0-10" vertex="1">
          <mxGeometry width="118" height="104" as="geometry">
            <mxRectangle width="118" height="104" as="alternateBounds" />
          </mxGeometry>
        </mxCell>
        <mxCell id="aYj19WxieziSCweyIVN0-12" value="" style="shape=partialRectangle;html=1;whiteSpace=wrap;connectable=0;strokeColor=inherit;overflow=hidden;fillColor=none;top=0;left=0;bottom=0;right=0;pointerEvents=1;" parent="aYj19WxieziSCweyIVN0-10" vertex="1">
          <mxGeometry x="118" width="116" height="104" as="geometry">
            <mxRectangle width="116" height="104" as="alternateBounds" />
          </mxGeometry>
        </mxCell>
        <mxCell id="aYj19WxieziSCweyIVN0-13" value="" style="shape=partialRectangle;html=1;whiteSpace=wrap;connectable=0;strokeColor=inherit;overflow=hidden;fillColor=none;top=0;left=0;bottom=0;right=0;pointerEvents=1;" parent="aYj19WxieziSCweyIVN0-10" vertex="1">
          <mxGeometry x="234" width="118" height="104" as="geometry">
            <mxRectangle width="118" height="104" as="alternateBounds" />
          </mxGeometry>
        </mxCell>
        <mxCell id="aYj19WxieziSCweyIVN0-14" value="" style="shape=partialRectangle;html=1;whiteSpace=wrap;connectable=0;strokeColor=inherit;overflow=hidden;fillColor=none;top=0;left=0;bottom=0;right=0;pointerEvents=1;" parent="aYj19WxieziSCweyIVN0-10" vertex="1">
          <mxGeometry x="352" width="116" height="104" as="geometry">
            <mxRectangle width="116" height="104" as="alternateBounds" />
          </mxGeometry>
        </mxCell>
        <mxCell id="aYj19WxieziSCweyIVN0-15" value="" style="shape=partialRectangle;html=1;whiteSpace=wrap;connectable=0;strokeColor=inherit;overflow=hidden;fillColor=none;top=0;left=0;bottom=0;right=0;pointerEvents=1;" parent="aYj19WxieziSCweyIVN0-10" vertex="1">
          <mxGeometry x="468" width="118" height="104" as="geometry">
            <mxRectangle width="118" height="104" as="alternateBounds" />
          </mxGeometry>
        </mxCell>
        <mxCell id="aYj19WxieziSCweyIVN0-16" value="" style="shape=partialRectangle;html=1;whiteSpace=wrap;connectable=0;strokeColor=inherit;overflow=hidden;fillColor=none;top=0;left=0;bottom=0;right=0;pointerEvents=1;" parent="aYj19WxieziSCweyIVN0-10" vertex="1">
          <mxGeometry x="586" width="116" height="104" as="geometry">
            <mxRectangle width="116" height="104" as="alternateBounds" />
          </mxGeometry>
        </mxCell>
        <mxCell id="aYj19WxieziSCweyIVN0-17" value="" style="shape=partialRectangle;html=1;whiteSpace=wrap;connectable=0;strokeColor=inherit;overflow=hidden;fillColor=none;top=0;left=0;bottom=0;right=0;pointerEvents=1;" parent="aYj19WxieziSCweyIVN0-10" vertex="1">
          <mxGeometry x="702" width="118" height="104" as="geometry">
            <mxRectangle width="118" height="104" as="alternateBounds" />
          </mxGeometry>
        </mxCell>
        <mxCell id="aYj19WxieziSCweyIVN0-18" value="" style="shape=tableRow;horizontal=0;startSize=0;swimlaneHead=0;swimlaneBody=0;strokeColor=inherit;top=0;left=0;bottom=0;right=0;collapsible=0;dropTarget=0;fillColor=none;points=[[0,0.5],[1,0.5]];portConstraint=eastwest;" parent="aYj19WxieziSCweyIVN0-1" vertex="1">
          <mxGeometry y="208" width="820" height="104" as="geometry" />
        </mxCell>
        <mxCell id="aYj19WxieziSCweyIVN0-19" value="Управление IT" style="shape=partialRectangle;html=1;whiteSpace=wrap;connectable=0;strokeColor=inherit;overflow=hidden;fillColor=none;top=0;left=0;bottom=0;right=0;pointerEvents=1;" parent="aYj19WxieziSCweyIVN0-18" vertex="1">
          <mxGeometry width="118" height="104" as="geometry">
            <mxRectangle width="118" height="104" as="alternateBounds" />
          </mxGeometry>
        </mxCell>
        <mxCell id="aYj19WxieziSCweyIVN0-20" value="" style="shape=partialRectangle;html=1;whiteSpace=wrap;connectable=0;strokeColor=inherit;overflow=hidden;fillColor=none;top=0;left=0;bottom=0;right=0;pointerEvents=1;" parent="aYj19WxieziSCweyIVN0-18" vertex="1">
          <mxGeometry x="118" width="116" height="104" as="geometry">
            <mxRectangle width="116" height="104" as="alternateBounds" />
          </mxGeometry>
        </mxCell>
        <mxCell id="aYj19WxieziSCweyIVN0-21" value="" style="shape=partialRectangle;html=1;whiteSpace=wrap;connectable=0;strokeColor=inherit;overflow=hidden;fillColor=none;top=0;left=0;bottom=0;right=0;pointerEvents=1;" parent="aYj19WxieziSCweyIVN0-18" vertex="1">
          <mxGeometry x="234" width="118" height="104" as="geometry">
            <mxRectangle width="118" height="104" as="alternateBounds" />
          </mxGeometry>
        </mxCell>
        <mxCell id="aYj19WxieziSCweyIVN0-22" value="" style="shape=partialRectangle;html=1;whiteSpace=wrap;connectable=0;strokeColor=inherit;overflow=hidden;fillColor=none;top=0;left=0;bottom=0;right=0;pointerEvents=1;" parent="aYj19WxieziSCweyIVN0-18" vertex="1">
          <mxGeometry x="352" width="116" height="104" as="geometry">
            <mxRectangle width="116" height="104" as="alternateBounds" />
          </mxGeometry>
        </mxCell>
        <mxCell id="aYj19WxieziSCweyIVN0-23" value="" style="shape=partialRectangle;html=1;whiteSpace=wrap;connectable=0;strokeColor=inherit;overflow=hidden;fillColor=none;top=0;left=0;bottom=0;right=0;pointerEvents=1;" parent="aYj19WxieziSCweyIVN0-18" vertex="1">
          <mxGeometry x="468" width="118" height="104" as="geometry">
            <mxRectangle width="118" height="104" as="alternateBounds" />
          </mxGeometry>
        </mxCell>
        <mxCell id="aYj19WxieziSCweyIVN0-24" value="" style="shape=partialRectangle;html=1;whiteSpace=wrap;connectable=0;strokeColor=inherit;overflow=hidden;fillColor=none;top=0;left=0;bottom=0;right=0;pointerEvents=1;" parent="aYj19WxieziSCweyIVN0-18" vertex="1">
          <mxGeometry x="586" width="116" height="104" as="geometry">
            <mxRectangle width="116" height="104" as="alternateBounds" />
          </mxGeometry>
        </mxCell>
        <mxCell id="aYj19WxieziSCweyIVN0-25" value="" style="shape=partialRectangle;html=1;whiteSpace=wrap;connectable=0;strokeColor=inherit;overflow=hidden;fillColor=none;top=0;left=0;bottom=0;right=0;pointerEvents=1;" parent="aYj19WxieziSCweyIVN0-18" vertex="1">
          <mxGeometry x="702" width="118" height="104" as="geometry">
            <mxRectangle width="118" height="104" as="alternateBounds" />
          </mxGeometry>
        </mxCell>
        <mxCell id="aYj19WxieziSCweyIVN0-26" value="" style="shape=tableRow;horizontal=0;startSize=0;swimlaneHead=0;swimlaneBody=0;strokeColor=inherit;top=0;left=0;bottom=0;right=0;collapsible=0;dropTarget=0;fillColor=none;points=[[0,0.5],[1,0.5]];portConstraint=eastwest;" parent="aYj19WxieziSCweyIVN0-1" vertex="1">
          <mxGeometry y="312" width="820" height="104" as="geometry" />
        </mxCell>
        <mxCell id="aYj19WxieziSCweyIVN0-27" value="Управление обслуживанием депозитных продуктов" style="shape=partialRectangle;html=1;whiteSpace=wrap;connectable=0;strokeColor=inherit;overflow=hidden;fillColor=none;top=0;left=0;bottom=0;right=0;pointerEvents=1;" parent="aYj19WxieziSCweyIVN0-26" vertex="1">
          <mxGeometry width="118" height="104" as="geometry">
            <mxRectangle width="118" height="104" as="alternateBounds" />
          </mxGeometry>
        </mxCell>
        <mxCell id="aYj19WxieziSCweyIVN0-28" value="" style="shape=partialRectangle;html=1;whiteSpace=wrap;connectable=0;strokeColor=inherit;overflow=hidden;fillColor=none;top=0;left=0;bottom=0;right=0;pointerEvents=1;" parent="aYj19WxieziSCweyIVN0-26" vertex="1">
          <mxGeometry x="118" width="116" height="104" as="geometry">
            <mxRectangle width="116" height="104" as="alternateBounds" />
          </mxGeometry>
        </mxCell>
        <mxCell id="aYj19WxieziSCweyIVN0-29" value="" style="shape=partialRectangle;html=1;whiteSpace=wrap;connectable=0;strokeColor=inherit;overflow=hidden;fillColor=none;top=0;left=0;bottom=0;right=0;pointerEvents=1;" parent="aYj19WxieziSCweyIVN0-26" vertex="1">
          <mxGeometry x="234" width="118" height="104" as="geometry">
            <mxRectangle width="118" height="104" as="alternateBounds" />
          </mxGeometry>
        </mxCell>
        <mxCell id="aYj19WxieziSCweyIVN0-30" value="" style="shape=partialRectangle;html=1;whiteSpace=wrap;connectable=0;strokeColor=inherit;overflow=hidden;fillColor=none;top=0;left=0;bottom=0;right=0;pointerEvents=1;" parent="aYj19WxieziSCweyIVN0-26" vertex="1">
          <mxGeometry x="352" width="116" height="104" as="geometry">
            <mxRectangle width="116" height="104" as="alternateBounds" />
          </mxGeometry>
        </mxCell>
        <mxCell id="aYj19WxieziSCweyIVN0-31" value="" style="shape=partialRectangle;html=1;whiteSpace=wrap;connectable=0;strokeColor=inherit;overflow=hidden;fillColor=none;top=0;left=0;bottom=0;right=0;pointerEvents=1;" parent="aYj19WxieziSCweyIVN0-26" vertex="1">
          <mxGeometry x="468" width="118" height="104" as="geometry">
            <mxRectangle width="118" height="104" as="alternateBounds" />
          </mxGeometry>
        </mxCell>
        <mxCell id="aYj19WxieziSCweyIVN0-32" value="" style="shape=partialRectangle;html=1;whiteSpace=wrap;connectable=0;strokeColor=inherit;overflow=hidden;fillColor=none;top=0;left=0;bottom=0;right=0;pointerEvents=1;" parent="aYj19WxieziSCweyIVN0-26" vertex="1">
          <mxGeometry x="586" width="116" height="104" as="geometry">
            <mxRectangle width="116" height="104" as="alternateBounds" />
          </mxGeometry>
        </mxCell>
        <mxCell id="aYj19WxieziSCweyIVN0-33" value="" style="shape=partialRectangle;html=1;whiteSpace=wrap;connectable=0;strokeColor=inherit;overflow=hidden;fillColor=none;top=0;left=0;bottom=0;right=0;pointerEvents=1;" parent="aYj19WxieziSCweyIVN0-26" vertex="1">
          <mxGeometry x="702" width="118" height="104" as="geometry">
            <mxRectangle width="118" height="104" as="alternateBounds" />
          </mxGeometry>
        </mxCell>
        <mxCell id="aYj19WxieziSCweyIVN0-34" value="" style="shape=tableRow;horizontal=0;startSize=0;swimlaneHead=0;swimlaneBody=0;strokeColor=inherit;top=0;left=0;bottom=0;right=0;collapsible=0;dropTarget=0;fillColor=none;points=[[0,0.5],[1,0.5]];portConstraint=eastwest;" parent="aYj19WxieziSCweyIVN0-1" vertex="1">
          <mxGeometry y="416" width="820" height="104" as="geometry" />
        </mxCell>
        <mxCell id="aYj19WxieziSCweyIVN0-35" value="Управление обслуживанием кредитных продуктов" style="shape=partialRectangle;html=1;whiteSpace=wrap;connectable=0;strokeColor=inherit;overflow=hidden;fillColor=none;top=0;left=0;bottom=0;right=0;pointerEvents=1;" parent="aYj19WxieziSCweyIVN0-34" vertex="1">
          <mxGeometry width="118" height="104" as="geometry">
            <mxRectangle width="118" height="104" as="alternateBounds" />
          </mxGeometry>
        </mxCell>
        <mxCell id="aYj19WxieziSCweyIVN0-36" value="" style="shape=partialRectangle;html=1;whiteSpace=wrap;connectable=0;strokeColor=inherit;overflow=hidden;fillColor=none;top=0;left=0;bottom=0;right=0;pointerEvents=1;" parent="aYj19WxieziSCweyIVN0-34" vertex="1">
          <mxGeometry x="118" width="116" height="104" as="geometry">
            <mxRectangle width="116" height="104" as="alternateBounds" />
          </mxGeometry>
        </mxCell>
        <mxCell id="aYj19WxieziSCweyIVN0-37" value="" style="shape=partialRectangle;html=1;whiteSpace=wrap;connectable=0;strokeColor=inherit;overflow=hidden;fillColor=none;top=0;left=0;bottom=0;right=0;pointerEvents=1;" parent="aYj19WxieziSCweyIVN0-34" vertex="1">
          <mxGeometry x="234" width="118" height="104" as="geometry">
            <mxRectangle width="118" height="104" as="alternateBounds" />
          </mxGeometry>
        </mxCell>
        <mxCell id="aYj19WxieziSCweyIVN0-38" value="" style="shape=partialRectangle;html=1;whiteSpace=wrap;connectable=0;strokeColor=inherit;overflow=hidden;fillColor=none;top=0;left=0;bottom=0;right=0;pointerEvents=1;" parent="aYj19WxieziSCweyIVN0-34" vertex="1">
          <mxGeometry x="352" width="116" height="104" as="geometry">
            <mxRectangle width="116" height="104" as="alternateBounds" />
          </mxGeometry>
        </mxCell>
        <mxCell id="aYj19WxieziSCweyIVN0-39" value="" style="shape=partialRectangle;html=1;whiteSpace=wrap;connectable=0;strokeColor=inherit;overflow=hidden;fillColor=none;top=0;left=0;bottom=0;right=0;pointerEvents=1;" parent="aYj19WxieziSCweyIVN0-34" vertex="1">
          <mxGeometry x="468" width="118" height="104" as="geometry">
            <mxRectangle width="118" height="104" as="alternateBounds" />
          </mxGeometry>
        </mxCell>
        <mxCell id="aYj19WxieziSCweyIVN0-40" value="" style="shape=partialRectangle;html=1;whiteSpace=wrap;connectable=0;strokeColor=inherit;overflow=hidden;fillColor=none;top=0;left=0;bottom=0;right=0;pointerEvents=1;" parent="aYj19WxieziSCweyIVN0-34" vertex="1">
          <mxGeometry x="586" width="116" height="104" as="geometry">
            <mxRectangle width="116" height="104" as="alternateBounds" />
          </mxGeometry>
        </mxCell>
        <mxCell id="aYj19WxieziSCweyIVN0-41" value="" style="shape=partialRectangle;html=1;whiteSpace=wrap;connectable=0;strokeColor=inherit;overflow=hidden;fillColor=none;top=0;left=0;bottom=0;right=0;pointerEvents=1;" parent="aYj19WxieziSCweyIVN0-34" vertex="1">
          <mxGeometry x="702" width="118" height="104" as="geometry">
            <mxRectangle width="118" height="104" as="alternateBounds" />
          </mxGeometry>
        </mxCell>
        <mxCell id="7mwUpy6du_ZHazW_wVKx-9" value="" style="shape=tableRow;horizontal=0;startSize=0;swimlaneHead=0;swimlaneBody=0;strokeColor=inherit;top=0;left=0;bottom=0;right=0;collapsible=0;dropTarget=0;fillColor=none;points=[[0,0.5],[1,0.5]];portConstraint=eastwest;" vertex="1" parent="aYj19WxieziSCweyIVN0-1">
          <mxGeometry y="520" width="820" height="104" as="geometry" />
        </mxCell>
        <mxCell id="7mwUpy6du_ZHazW_wVKx-10" value="Кол-центр банка «Стандарт»" style="shape=partialRectangle;html=1;whiteSpace=wrap;connectable=0;strokeColor=inherit;overflow=hidden;fillColor=none;top=0;left=0;bottom=0;right=0;pointerEvents=1;" vertex="1" parent="7mwUpy6du_ZHazW_wVKx-9">
          <mxGeometry width="118" height="104" as="geometry">
            <mxRectangle width="118" height="104" as="alternateBounds" />
          </mxGeometry>
        </mxCell>
        <mxCell id="7mwUpy6du_ZHazW_wVKx-11" value="Система кол-центра" style="shape=partialRectangle;html=1;whiteSpace=wrap;connectable=0;strokeColor=inherit;overflow=hidden;fillColor=light-dark(#FFFFFF,#0000FF);top=0;left=0;bottom=0;right=0;pointerEvents=1;" vertex="1" parent="7mwUpy6du_ZHazW_wVKx-9">
          <mxGeometry x="118" width="116" height="104" as="geometry">
            <mxRectangle width="116" height="104" as="alternateBounds" />
          </mxGeometry>
        </mxCell>
        <mxCell id="7mwUpy6du_ZHazW_wVKx-12" value="" style="shape=partialRectangle;html=1;whiteSpace=wrap;connectable=0;strokeColor=inherit;overflow=hidden;fillColor=none;top=0;left=0;bottom=0;right=0;pointerEvents=1;" vertex="1" parent="7mwUpy6du_ZHazW_wVKx-9">
          <mxGeometry x="234" width="118" height="104" as="geometry">
            <mxRectangle width="118" height="104" as="alternateBounds" />
          </mxGeometry>
        </mxCell>
        <mxCell id="7mwUpy6du_ZHazW_wVKx-13" value="" style="shape=partialRectangle;html=1;whiteSpace=wrap;connectable=0;strokeColor=inherit;overflow=hidden;fillColor=none;top=0;left=0;bottom=0;right=0;pointerEvents=1;" vertex="1" parent="7mwUpy6du_ZHazW_wVKx-9">
          <mxGeometry x="352" width="116" height="104" as="geometry">
            <mxRectangle width="116" height="104" as="alternateBounds" />
          </mxGeometry>
        </mxCell>
        <mxCell id="7mwUpy6du_ZHazW_wVKx-14" value="" style="shape=partialRectangle;html=1;whiteSpace=wrap;connectable=0;strokeColor=inherit;overflow=hidden;fillColor=none;top=0;left=0;bottom=0;right=0;pointerEvents=1;" vertex="1" parent="7mwUpy6du_ZHazW_wVKx-9">
          <mxGeometry x="468" width="118" height="104" as="geometry">
            <mxRectangle width="118" height="104" as="alternateBounds" />
          </mxGeometry>
        </mxCell>
        <mxCell id="7mwUpy6du_ZHazW_wVKx-15" value="" style="shape=partialRectangle;html=1;whiteSpace=wrap;connectable=0;strokeColor=inherit;overflow=hidden;fillColor=none;top=0;left=0;bottom=0;right=0;pointerEvents=1;" vertex="1" parent="7mwUpy6du_ZHazW_wVKx-9">
          <mxGeometry x="586" width="116" height="104" as="geometry">
            <mxRectangle width="116" height="104" as="alternateBounds" />
          </mxGeometry>
        </mxCell>
        <mxCell id="7mwUpy6du_ZHazW_wVKx-16" value="" style="shape=partialRectangle;html=1;whiteSpace=wrap;connectable=0;strokeColor=inherit;overflow=hidden;fillColor=none;top=0;left=0;bottom=0;right=0;pointerEvents=1;" vertex="1" parent="7mwUpy6du_ZHazW_wVKx-9">
          <mxGeometry x="702" width="118" height="104" as="geometry">
            <mxRectangle width="118" height="104" as="alternateBounds" />
          </mxGeometry>
        </mxCell>
        <mxCell id="7mwUpy6du_ZHazW_wVKx-17" value="" style="shape=tableRow;horizontal=0;startSize=0;swimlaneHead=0;swimlaneBody=0;strokeColor=inherit;top=0;left=0;bottom=0;right=0;collapsible=0;dropTarget=0;fillColor=none;points=[[0,0.5],[1,0.5]];portConstraint=eastwest;" vertex="1" parent="aYj19WxieziSCweyIVN0-1">
          <mxGeometry y="624" width="820" height="104" as="geometry" />
        </mxCell>
        <mxCell id="7mwUpy6du_ZHazW_wVKx-18" value="Партнёрский кол-центр" style="shape=partialRectangle;html=1;whiteSpace=wrap;connectable=0;strokeColor=inherit;overflow=hidden;fillColor=none;top=0;left=0;bottom=0;right=0;pointerEvents=1;" vertex="1" parent="7mwUpy6du_ZHazW_wVKx-17">
          <mxGeometry width="118" height="104" as="geometry">
            <mxRectangle width="118" height="104" as="alternateBounds" />
          </mxGeometry>
        </mxCell>
        <mxCell id="7mwUpy6du_ZHazW_wVKx-19" value="Система партнёрского кол-центра" style="shape=partialRectangle;html=1;whiteSpace=wrap;connectable=0;strokeColor=inherit;overflow=hidden;fillColor=light-dark(#000000,#2C13A1);top=0;left=0;bottom=0;right=0;pointerEvents=1;" vertex="1" parent="7mwUpy6du_ZHazW_wVKx-17">
          <mxGeometry x="118" width="116" height="104" as="geometry">
            <mxRectangle width="116" height="104" as="alternateBounds" />
          </mxGeometry>
        </mxCell>
        <mxCell id="7mwUpy6du_ZHazW_wVKx-20" value="" style="shape=partialRectangle;html=1;whiteSpace=wrap;connectable=0;strokeColor=inherit;overflow=hidden;fillColor=none;top=0;left=0;bottom=0;right=0;pointerEvents=1;" vertex="1" parent="7mwUpy6du_ZHazW_wVKx-17">
          <mxGeometry x="234" width="118" height="104" as="geometry">
            <mxRectangle width="118" height="104" as="alternateBounds" />
          </mxGeometry>
        </mxCell>
        <mxCell id="7mwUpy6du_ZHazW_wVKx-21" value="" style="shape=partialRectangle;html=1;whiteSpace=wrap;connectable=0;strokeColor=inherit;overflow=hidden;fillColor=none;top=0;left=0;bottom=0;right=0;pointerEvents=1;" vertex="1" parent="7mwUpy6du_ZHazW_wVKx-17">
          <mxGeometry x="352" width="116" height="104" as="geometry">
            <mxRectangle width="116" height="104" as="alternateBounds" />
          </mxGeometry>
        </mxCell>
        <mxCell id="7mwUpy6du_ZHazW_wVKx-22" value="" style="shape=partialRectangle;html=1;whiteSpace=wrap;connectable=0;strokeColor=inherit;overflow=hidden;fillColor=none;top=0;left=0;bottom=0;right=0;pointerEvents=1;" vertex="1" parent="7mwUpy6du_ZHazW_wVKx-17">
          <mxGeometry x="468" width="118" height="104" as="geometry">
            <mxRectangle width="118" height="104" as="alternateBounds" />
          </mxGeometry>
        </mxCell>
        <mxCell id="7mwUpy6du_ZHazW_wVKx-23" value="" style="shape=partialRectangle;html=1;whiteSpace=wrap;connectable=0;strokeColor=inherit;overflow=hidden;fillColor=none;top=0;left=0;bottom=0;right=0;pointerEvents=1;" vertex="1" parent="7mwUpy6du_ZHazW_wVKx-17">
          <mxGeometry x="586" width="116" height="104" as="geometry">
            <mxRectangle width="116" height="104" as="alternateBounds" />
          </mxGeometry>
        </mxCell>
        <mxCell id="7mwUpy6du_ZHazW_wVKx-24" value="" style="shape=partialRectangle;html=1;whiteSpace=wrap;connectable=0;strokeColor=inherit;overflow=hidden;fillColor=none;top=0;left=0;bottom=0;right=0;pointerEvents=1;" vertex="1" parent="7mwUpy6du_ZHazW_wVKx-17">
          <mxGeometry x="702" width="118" height="104" as="geometry">
            <mxRectangle width="118" height="104" as="alternateBounds" />
          </mxGeometry>
        </mxCell>
        <mxCell id="7mwUpy6du_ZHazW_wVKx-1" value="" style="shape=tableRow;horizontal=0;startSize=0;swimlaneHead=0;swimlaneBody=0;strokeColor=inherit;top=0;left=0;bottom=0;right=0;collapsible=0;dropTarget=0;fillColor=none;points=[[0,0.5],[1,0.5]];portConstraint=eastwest;" vertex="1" parent="aYj19WxieziSCweyIVN0-1">
          <mxGeometry y="728" width="820" height="104" as="geometry" />
        </mxCell>
        <mxCell id="7mwUpy6du_ZHazW_wVKx-2" value="Команда цифровой трансформации розничного бизнеса" style="shape=partialRectangle;html=1;whiteSpace=wrap;connectable=0;strokeColor=inherit;overflow=hidden;fillColor=none;top=0;left=0;bottom=0;right=0;pointerEvents=1;" vertex="1" parent="7mwUpy6du_ZHazW_wVKx-1">
          <mxGeometry width="118" height="104" as="geometry">
            <mxRectangle width="118" height="104" as="alternateBounds" />
          </mxGeometry>
        </mxCell>
        <mxCell id="7mwUpy6du_ZHazW_wVKx-3" value="" style="shape=partialRectangle;html=1;whiteSpace=wrap;connectable=0;strokeColor=inherit;overflow=hidden;fillColor=none;top=0;left=0;bottom=0;right=0;pointerEvents=1;" vertex="1" parent="7mwUpy6du_ZHazW_wVKx-1">
          <mxGeometry x="118" width="116" height="104" as="geometry">
            <mxRectangle width="116" height="104" as="alternateBounds" />
          </mxGeometry>
        </mxCell>
        <mxCell id="7mwUpy6du_ZHazW_wVKx-4" value="" style="shape=partialRectangle;html=1;whiteSpace=wrap;connectable=0;strokeColor=inherit;overflow=hidden;fillColor=none;top=0;left=0;bottom=0;right=0;pointerEvents=1;" vertex="1" parent="7mwUpy6du_ZHazW_wVKx-1">
          <mxGeometry x="234" width="118" height="104" as="geometry">
            <mxRectangle width="118" height="104" as="alternateBounds" />
          </mxGeometry>
        </mxCell>
        <mxCell id="7mwUpy6du_ZHazW_wVKx-5" value="" style="shape=partialRectangle;html=1;whiteSpace=wrap;connectable=0;strokeColor=inherit;overflow=hidden;fillColor=none;top=0;left=0;bottom=0;right=0;pointerEvents=1;" vertex="1" parent="7mwUpy6du_ZHazW_wVKx-1">
          <mxGeometry x="352" width="116" height="104" as="geometry">
            <mxRectangle width="116" height="104" as="alternateBounds" />
          </mxGeometry>
        </mxCell>
        <mxCell id="7mwUpy6du_ZHazW_wVKx-6" value="" style="shape=partialRectangle;html=1;whiteSpace=wrap;connectable=0;strokeColor=inherit;overflow=hidden;fillColor=none;top=0;left=0;bottom=0;right=0;pointerEvents=1;" vertex="1" parent="7mwUpy6du_ZHazW_wVKx-1">
          <mxGeometry x="468" width="118" height="104" as="geometry">
            <mxRectangle width="118" height="104" as="alternateBounds" />
          </mxGeometry>
        </mxCell>
        <mxCell id="7mwUpy6du_ZHazW_wVKx-7" value="" style="shape=partialRectangle;html=1;whiteSpace=wrap;connectable=0;strokeColor=inherit;overflow=hidden;fillColor=none;top=0;left=0;bottom=0;right=0;pointerEvents=1;" vertex="1" parent="7mwUpy6du_ZHazW_wVKx-1">
          <mxGeometry x="586" width="116" height="104" as="geometry">
            <mxRectangle width="116" height="104" as="alternateBounds" />
          </mxGeometry>
        </mxCell>
        <mxCell id="7mwUpy6du_ZHazW_wVKx-8" value="" style="shape=partialRectangle;html=1;whiteSpace=wrap;connectable=0;strokeColor=inherit;overflow=hidden;fillColor=none;top=0;left=0;bottom=0;right=0;pointerEvents=1;" vertex="1" parent="7mwUpy6du_ZHazW_wVKx-1">
          <mxGeometry x="702" width="118" height="104" as="geometry">
            <mxRectangle width="118" height="104" as="alternateBounds" />
          </mxGeometry>
        </mxCell>
        <mxCell id="aVEvOUDzmiPBGEOAn6TJ-1" value="Автоматизированная банковская система" style="rounded=0;whiteSpace=wrap;html=1;fillColor=light-dark(#FFFFFF,#00A100);" vertex="1" parent="1">
          <mxGeometry x="280" y="340" width="570" height="400" as="geometry" />
        </mxCell>
        <mxCell id="ueastl8iKvdf8pnxRwV1-1" value="СМС-шлюз" style="rounded=0;whiteSpace=wrap;html=1;fillColor=light-dark(#FFFFFF,#FF6666);" vertex="1" parent="1">
          <mxGeometry x="284" y="455" width="120" height="280" as="geometry" />
        </mxCell>
      </root>
    </mxGraphModel>
  </diagram>
  <diagram id="MV5TvgQyy75ItAIgkCKw" name="Схему интеграции приложений">
    <mxGraphModel dx="2205" dy="780" grid="1" gridSize="10" guides="1" tooltips="1" connect="1" arrows="1" fold="1" page="1" pageScale="1" pageWidth="827" pageHeight="1169" math="0" shadow="0">
      <root>
        <mxCell id="0" />
        <mxCell id="1" parent="0" />
        <mxCell id="DaA6T54rzW1htVRrFa5f-37" style="edgeStyle=orthogonalEdgeStyle;rounded=0;orthogonalLoop=1;jettySize=auto;html=1;entryX=0;entryY=0.5;entryDx=0;entryDy=0;" edge="1" parent="1" source="DaA6T54rzW1htVRrFa5f-28" target="DaA6T54rzW1htVRrFa5f-35">
          <mxGeometry relative="1" as="geometry" />
        </mxCell>
        <mxCell id="DaA6T54rzW1htVRrFa5f-39" style="edgeStyle=orthogonalEdgeStyle;rounded=0;orthogonalLoop=1;jettySize=auto;html=1;entryX=0;entryY=0.5;entryDx=0;entryDy=0;" edge="1" parent="1" source="DaA6T54rzW1htVRrFa5f-28" target="DaA6T54rzW1htVRrFa5f-31">
          <mxGeometry relative="1" as="geometry" />
        </mxCell>
        <mxCell id="DaA6T54rzW1htVRrFa5f-28" value="Клиент" style="html=1;verticalLabelPosition=bottom;align=center;labelBackgroundColor=#ffffff;verticalAlign=top;strokeWidth=2;strokeColor=#0080F0;shadow=0;dashed=0;shape=mxgraph.ios7.icons.user;" vertex="1" parent="1">
          <mxGeometry x="-83" y="330" width="30" height="30" as="geometry" />
        </mxCell>
        <mxCell id="DaA6T54rzW1htVRrFa5f-46" style="edgeStyle=orthogonalEdgeStyle;rounded=0;orthogonalLoop=1;jettySize=auto;html=1;entryX=0;entryY=0.5;entryDx=0;entryDy=0;" edge="1" parent="1" source="DaA6T54rzW1htVRrFa5f-29" target="DaA6T54rzW1htVRrFa5f-30">
          <mxGeometry relative="1" as="geometry" />
        </mxCell>
        <mxCell id="DaA6T54rzW1htVRrFa5f-29" value="Интернет-банк" style="rounded=0;whiteSpace=wrap;html=1;" vertex="1" parent="1">
          <mxGeometry x="41.410000000000025" y="200" width="117.17" height="60" as="geometry" />
        </mxCell>
        <mxCell id="DaA6T54rzW1htVRrFa5f-44" style="edgeStyle=orthogonalEdgeStyle;rounded=0;orthogonalLoop=1;jettySize=auto;html=1;entryX=0.5;entryY=0;entryDx=0;entryDy=0;" edge="1" parent="1" source="DaA6T54rzW1htVRrFa5f-30" target="DaA6T54rzW1htVRrFa5f-33">
          <mxGeometry relative="1" as="geometry" />
        </mxCell>
        <mxCell id="DaA6T54rzW1htVRrFa5f-30" value="Автоматизированная банковская система" style="rounded=0;whiteSpace=wrap;html=1;" vertex="1" parent="1">
          <mxGeometry x="262.83" y="315" width="120" height="60" as="geometry" />
        </mxCell>
        <mxCell id="DaA6T54rzW1htVRrFa5f-43" style="edgeStyle=orthogonalEdgeStyle;rounded=0;orthogonalLoop=1;jettySize=auto;html=1;" edge="1" parent="1" source="DaA6T54rzW1htVRrFa5f-31" target="DaA6T54rzW1htVRrFa5f-32">
          <mxGeometry relative="1" as="geometry" />
        </mxCell>
        <mxCell id="DaA6T54rzW1htVRrFa5f-48" style="edgeStyle=orthogonalEdgeStyle;rounded=0;orthogonalLoop=1;jettySize=auto;html=1;" edge="1" parent="1" source="DaA6T54rzW1htVRrFa5f-31" target="DaA6T54rzW1htVRrFa5f-30">
          <mxGeometry relative="1" as="geometry" />
        </mxCell>
        <mxCell id="DaA6T54rzW1htVRrFa5f-31" value="Система кол-центра" style="rounded=0;whiteSpace=wrap;html=1;" vertex="1" parent="1">
          <mxGeometry x="41.410000000000025" y="370" width="120" height="60" as="geometry" />
        </mxCell>
        <mxCell id="DaA6T54rzW1htVRrFa5f-32" value="Система партнёрского кол-центра" style="rounded=0;whiteSpace=wrap;html=1;" vertex="1" parent="1">
          <mxGeometry x="41.41" y="450" width="120" height="60" as="geometry" />
        </mxCell>
        <mxCell id="DaA6T54rzW1htVRrFa5f-45" style="edgeStyle=orthogonalEdgeStyle;rounded=0;orthogonalLoop=1;jettySize=auto;html=1;" edge="1" parent="1" source="DaA6T54rzW1htVRrFa5f-33" target="DaA6T54rzW1htVRrFa5f-34">
          <mxGeometry relative="1" as="geometry" />
        </mxCell>
        <mxCell id="DaA6T54rzW1htVRrFa5f-33" value="СМС-шлюз телеком-оператора" style="rounded=0;whiteSpace=wrap;html=1;" vertex="1" parent="1">
          <mxGeometry x="262.83000000000004" y="470" width="120" height="60" as="geometry" />
        </mxCell>
        <mxCell id="DaA6T54rzW1htVRrFa5f-34" value="Телеком-оператор&amp;nbsp;" style="rounded=0;whiteSpace=wrap;html=1;" vertex="1" parent="1">
          <mxGeometry x="262.83000000000004" y="560" width="120" height="60" as="geometry" />
        </mxCell>
        <mxCell id="DaA6T54rzW1htVRrFa5f-47" style="edgeStyle=orthogonalEdgeStyle;rounded=0;orthogonalLoop=1;jettySize=auto;html=1;entryX=0;entryY=0.5;entryDx=0;entryDy=0;" edge="1" parent="1" source="DaA6T54rzW1htVRrFa5f-35" target="DaA6T54rzW1htVRrFa5f-30">
          <mxGeometry relative="1" as="geometry" />
        </mxCell>
        <mxCell id="DaA6T54rzW1htVRrFa5f-35" value="Сайт" style="rounded=0;whiteSpace=wrap;html=1;" vertex="1" parent="1">
          <mxGeometry x="38.58000000000001" y="285" width="120" height="60" as="geometry" />
        </mxCell>
        <mxCell id="DaA6T54rzW1htVRrFa5f-36" style="edgeStyle=orthogonalEdgeStyle;rounded=0;orthogonalLoop=1;jettySize=auto;html=1;entryX=-0.003;entryY=0.617;entryDx=0;entryDy=0;entryPerimeter=0;" edge="1" parent="1" source="DaA6T54rzW1htVRrFa5f-28" target="DaA6T54rzW1htVRrFa5f-29">
          <mxGeometry relative="1" as="geometry" />
        </mxCell>
        <mxCell id="DaA6T54rzW1htVRrFa5f-51" style="edgeStyle=orthogonalEdgeStyle;rounded=0;orthogonalLoop=1;jettySize=auto;html=1;entryX=1;entryY=0.5;entryDx=0;entryDy=0;" edge="1" parent="1" source="DaA6T54rzW1htVRrFa5f-50" target="DaA6T54rzW1htVRrFa5f-30">
          <mxGeometry relative="1" as="geometry" />
        </mxCell>
        <mxCell id="DaA6T54rzW1htVRrFa5f-50" value="Менеджеры" style="html=1;verticalLabelPosition=bottom;align=center;labelBackgroundColor=#ffffff;verticalAlign=top;strokeWidth=2;strokeColor=#0080F0;shadow=0;dashed=0;shape=mxgraph.ios7.icons.user;" vertex="1" parent="1">
          <mxGeometry x="554.83" y="290" width="30" height="30" as="geometry" />
        </mxCell>
        <mxCell id="DaA6T54rzW1htVRrFa5f-52" value="Сотрудники кол-центра" style="html=1;verticalLabelPosition=bottom;align=center;labelBackgroundColor=#ffffff;verticalAlign=top;strokeWidth=2;strokeColor=#0080F0;shadow=0;dashed=0;shape=mxgraph.ios7.icons.user;" vertex="1" parent="1">
          <mxGeometry x="-100" y="500" width="30" height="30" as="geometry" />
        </mxCell>
        <mxCell id="DaA6T54rzW1htVRrFa5f-53" style="edgeStyle=orthogonalEdgeStyle;rounded=0;orthogonalLoop=1;jettySize=auto;html=1;entryX=0.005;entryY=0.617;entryDx=0;entryDy=0;entryPerimeter=0;" edge="1" parent="1" source="DaA6T54rzW1htVRrFa5f-52" target="DaA6T54rzW1htVRrFa5f-31">
          <mxGeometry relative="1" as="geometry" />
        </mxCell>
      </root>
    </mxGraphModel>
  </diagram>
</mxfile>
